<?xml version="1.0" encoding="utf-8"?><svg xmlns="http://www.w3.org/2000/svg" xmlns:xlink="http://www.w3.org/1999/xlink"><symbol viewBox="0 0 48 48" id="logo" xmlns="http://www.w3.org/2000/svg"><path d="M24 32.47a1.416 1.416 0 01-1.412-1.411c0-5.435-4.447-9.882-9.882-9.882a1.416 1.416 0 01-1.412-1.412c0-.777.635-1.412 1.412-1.412 7.023 0 12.706 5.682 12.706 12.706 0 .776-.636 1.412-1.412 1.412zm12.706-12.705c0 .776-.636 1.412-1.412 1.412a9.851 9.851 0 00-8.118 4.27 14.442 14.442 0 00-1.411-2.753 12.588 12.588 0 019.53-4.341c.776 0 1.41.635 1.41 1.412z" fill-opacity=".25"/><path d="M24 48C10.765 48 0 37.235 0 24S10.765 0 24 0s24 10.765 24 24-10.765 24-24 24zm0-45.176C12.318 2.824 2.824 12.318 2.824 24c0 11.682 9.494 21.176 21.176 21.176 11.682 0 21.176-9.494 21.176-21.176 0-11.682-9.494-21.176-21.176-21.176z" fill-opacity=".25"/></symbol></svg>